<?xml version="1.0" standalone="no"?><!DOCTYPE svg PUBLIC "-//W3C//DTD SVG 1.1//EN" "http://www.w3.org/Graphics/SVG/1.1/DTD/svg11.dtd"><svg t="1676894340343" class="icon" viewBox="0 0 1024 1024" version="1.1" xmlns="http://www.w3.org/2000/svg" p-id="4852" xmlns:xlink="http://www.w3.org/1999/xlink" width="200" height="200"><path d="M497.43 242.63s-21.87 12-49.34 4.17c-27.48-7.83-36.84-30.78-36.84-30.78-2.9-4.66-9.85-3.98-5.36-6.45 0 0 19.76-14.93 47.24-7.09 27.47 7.84 44.3 40.15 44.3 40.15z" fill="#9CCB3B" p-id="4853"></path><path d="M831.39 578.18c0 172.79-194.63 303.59-280.67 303.59-172.79 0-311.53-125.9-311.53-298.69s140.07-312.87 312.87-312.87 279.33 135.18 279.33 307.97z" fill="#FF9D00" p-id="4854"></path><path d="M726.8 528.12c0 172.79-122.66 309.9-295.45 309.9-14.53 0-42.83-4.35-56.83-6.28 47.38 33.05 87.07 40.48 136.68 40.48 80.94 0 156.97-31.5 214.17-88.7 57.21-57.2 88.71-133.23 88.71-214.17s-31.5-156.97-88.71-214.17c-33.86-33.86-74.35-58.63-118.53-73.28 73.01 57.28 119.96 146.24 119.96 246.22z" fill="#ED8D03" p-id="4855"></path><path d="M515.05 224.88c-8.06-22.05-21.17-37.92-39.27-46.93-32.21-16.06-67.64-4.11-69.16-3.57l-8.57 2.95 0.8 9.01c2.23 25.53 11.87 43.91 28.74 54.79 6.45 4.16 13.41 6.83 20.49 8.43 18.4-3.61 37.16-5.55 56.18-5.94l10.79-18.74z m-74.96-3.37c-8.48-5.45-14.1-14.64-16.78-27.49 10.17-1.79 27.13-2.86 42.21 4.64 10.53 5.36 18.83 14.28 24.72 26.68-13.29 3.04-35.16 5.89-50.15-3.83z" fill="#333333" p-id="4856"></path><path d="M280.72 799.94c29.89 29.98 64.78 53.45 103.6 69.87 40.15 16.95 82.9 25.61 126.89 25.61 44 0 86.74-8.66 126.9-25.61 38.82-16.42 73.62-39.89 103.6-69.87 29.99-29.9 53.46-64.79 69.87-103.6 16.95-40.16 25.61-82.9 25.61-126.9s-8.57-86.65-25.61-126.89c-16.42-38.82-39.89-73.62-69.87-103.61-29.9-29.98-64.78-53.45-103.6-69.87-34.16-14.42-70.19-22.77-107.27-24.97l-6.05 10.51 2.57 8.03-5.11-3.62-0.96 1.66c-2.15 3.75-6.07 5.8-10.09 5.8 33.03 0 65.2 5.33 95.64 15.42-5.58-4.38-11.28-8.63-17.17-12.64 133.79 35.51 232.4 157.41 232.4 302.37C822.07 744.42 682 884.5 509.2 884.5c-65.16 0-125.65-19.94-175.74-54.02 12.27 3.26 24.85 5.75 37.67 7.51-26.97-14.1-51.96-32.34-74.1-54.48-57.2-57.2-88.7-133.23-88.7-214.17s31.5-156.97 88.7-214.17c57.2-57.2 133.23-88.7 214.17-88.7-1.96 0-3.93-0.54-5.8-1.52-5.54-3.21-7.5-10.26-4.29-15.88l1.71-2.97c-12.17 3.59-33.89 8.19-54.75 3.46a322.282 322.282 0 0 0-63.77 19.5c-38.82 16.42-73.62 39.89-103.6 69.87-29.99 29.9-53.46 64.79-69.87 103.61-16.95 40.16-25.61 82.9-25.61 126.89 0 44 8.57 86.65 25.61 126.9 16.43 38.82 39.9 73.63 69.89 103.61z" fill="#333333" p-id="4857"></path><path d="M814.09 569.35c0 80.94-31.5 156.97-88.71 214.17-57.2 57.2-133.23 88.7-214.17 88.7-49.61 0-97.36-11.89-140.07-34.22-12.81-1.77-25.4-4.26-37.67-7.51 50.09 34.08 110.59 54.02 175.74 54.02 172.8 0 312.87-140.07 312.87-312.87 0-144.96-98.61-266.86-232.4-302.37 5.88 4 11.58 8.25 17.17 12.64 44.18 14.65 84.67 39.42 118.53 73.28 57.21 57.19 88.71 133.22 88.71 214.16zM502.84 246.11l1.43-2.48c-19.02 0.39-37.78 2.34-56.18 5.94 20.86 4.73 42.58 0.13 54.75-3.46zM527.36 262.64l-2.57-8.03-2.53 4.41zM521.29 243.71c3.19 0.1 6.38 0.21 9.55 0.39l53.99-93.8c3.22-5.63 1.25-12.68-4.29-15.89-5.62-3.21-12.67-1.25-15.88 4.28l-49.61 86.19c0.57 1.55 1.17 3.04 1.69 4.65l4.55 14.18z" fill="#333333" p-id="4858"></path><path d="M511.21 243.46c3.37 0 6.72 0.15 10.08 0.25l-4.54-14.17c-0.52-1.61-1.12-3.11-1.69-4.65l-10.79 18.74c2.31-0.05 4.62-0.17 6.94-0.17zM524.79 254.61l6.05-10.51c-3.18-0.19-6.36-0.3-9.55-0.39l3.5 10.9zM502.84 246.11l-1.71 2.97c-3.21 5.62-1.25 12.67 4.29 15.88 1.87 0.98 3.84 1.52 5.8 1.52 4.02 0 7.94-2.06 10.09-5.8l0.96-1.66-18.54-13.15c-0.27 0.07-0.62 0.16-0.89 0.24z" fill="#333333" p-id="4859"></path><path d="M511.21 243.46c-2.32 0-4.63 0.12-6.94 0.17l-1.43 2.48c0.27-0.08 0.62-0.16 0.88-0.24l18.54 13.15 2.53-4.4-3.5-10.91c-3.35-0.11-6.71-0.25-10.08-0.25z" fill="#333333" p-id="4860"></path><path d="M287.04 657.98c0.62-4.34 3.72-8.15 8.23-9.3 6.02-1.59 12.22 1.95 13.9 7.97 15.5 57.11 50.56 105.55 96.25 133.09 5.31 3.19 7.08 10.18 3.9 15.5-3.19 5.31-10.18 7.08-15.5 3.9-50.65-30.46-89.43-83.85-106.43-146.46-0.44-1.69-0.53-3.19-0.35-4.7" fill="#FFFFFF" p-id="4861"></path><path d="M546.73 249.25s43.63-67.63 102.87-71.7c59.24-4.07 96.36 41.72 96.36 41.72 8.5 8.42-2.25 5.69-9.72 15.02 0 0-32.32 56.55-91.56 60.62-59.23 4.07-97.95-45.66-97.95-45.66z" fill="#9CCB3B" p-id="4862"></path><path d="M537.92 235.29c14.07 14.23 54.99 51.21 98.6 48.21 43.6-3 79.15-45.23 91.08-61.24-14.01-14.24-54.93-51.21-98.53-48.22-43.81 3.01-79.23 45.23-91.15 61.25z m99.98 67.47c-63.37 4.35-117.44-57.64-119.73-60.3-2.78-3.26-3.1-7.96-0.79-11.51 1.91-2.94 46.99-71.82 110.36-76.17 63.37-4.35 117.45 57.71 119.68 60.37 2.78 3.24 3.1 7.92 0.79 11.51-1.92 2.94-47 71.75-110.31 76.1z" fill="#333333" p-id="4863"></path><path d="M700.07 225.17c0.23 2.47-0.49 5.01-2.2 7.05-3.42 4.07-9.52 4.61-13.58 1.19-5.09-4.31-10.48-8.25-16.14-11.79-4.54-2.82-5.84-8.79-3.02-13.33 2.82-4.47 8.79-5.84 13.33-3.02 6.36 4.05 12.45 8.52 18.23 13.37 2.03 1.71 3.21 4.05 3.38 6.53" fill="#FFFFFF" p-id="4864"></path></svg>