<?xml version="1.0" standalone="no"?><!DOCTYPE svg PUBLIC "-//W3C//DTD SVG 1.1//EN" "http://www.w3.org/Graphics/SVG/1.1/DTD/svg11.dtd"><svg t="1681455876981" class="icon" viewBox="0 0 1024 1024" version="1.1" xmlns="http://www.w3.org/2000/svg" p-id="11389" xmlns:xlink="http://www.w3.org/1999/xlink" width="200" height="200"><path d="M923.2 803l-632.2-0.8L0.1 511.3l290.9-290h632.1c55.7 0 100.9 45.3 100.9 100.9v379.9c0.1 55.6-45.2 100.9-100.8 100.9z m-616-39.9l616 0.8c34.1 0 61.8-27.8 61.8-61.9V322.2c0-34.1-27.8-61.9-61.9-61.9h-616l-251.8 251 251.9 251.8z" fill="#ebeaea" p-id="11390"></path><path d="M739.4 371.3l40.2 40.2-241.3 241.4-40.2-40.2 241.3-241.4z" fill="#ebeaea" p-id="11391"></path><path d="M538.3 371.3l241.4 241.4-40.2 40.2-241.4-241.3 40.2-40.3z" fill="#ebeaea" p-id="11392"></path></svg>